<?xml version="1.0" encoding="UTF-8"?>
<svg id="Layer_1" xmlns="http://www.w3.org/2000/svg" version="1.1" viewBox="0 0 756.1 133.6">
  <!-- Generator: Adobe Illustrator 30.6.0, SVG Export Plug-In . SVG Version: 2.1.4 Build 109)  -->
  <path d="M0,67.1C0,28,22.6,0,61.5,0s52.9,20.6,56,48.6h-27.8c-2.3-13.3-9-26.2-29.2-26.2s-32.6,19.6-32.6,44.3,8.2,44.5,32.6,44.5,27.4-12.9,29.2-27.6h27.8c-2.9,29.1-22.6,50-56.7,50S0,105.4,0,67.1h0Z"/>
  <path d="M120.7,107.1c0-19.6,15.6-26.5,36.2-30.7,11.5-2.3,23.9-3.9,23.9-12.9s-3.9-9.9-14.2-9.9-17.4,4.7-18.3,14.9h-23.9c.9-17.6,13.3-32.3,43.2-32.3s37,9.3,37,35.7v38.2c0,5.6.5,8.1,3.8,8.1s1.1,0,2.1-.2v12.7c-4.7.9-9.5,1.2-13.3,1.2-10.4,0-14.9-4.3-16.1-12.9h-.4c-6.5,8.8-16.9,14.5-30.7,14.5s-29.4-10.6-29.4-26.5h0ZM180.8,94.3v-9.7c-3.4,1.8-9,3.2-17.4,5.2-12.6,2.7-17.4,7.2-17.4,14.9s4.5,11.3,13.1,11.3c13.1,0,21.7-9.1,21.7-21.7h0Z"/>
  <path d="M223.6,102.6v-44.5h-12.9v-18.8h12.9V12.2h24.6v27.1h16.5v18.8h-16.5v44.3c0,9.7,3.4,11.1,9.7,11.1s4.1-.2,7.7-.7v17.9c-5.6,1.2-9.9,1.8-14.9,1.8-18.3,0-27.1-7.9-27.1-29.9Z"/>
  <path d="M320.3,56.7c-12.5,0-20.1,6.8-20.1,20.1v54.2h-24.6V2.7h24.6v49.1h.4c4.8-7.9,14-15.4,30.1-15.4s30.1,10.9,30.1,31.9v62.6h-24.8v-55.1c0-13.3-5-19.2-15.8-19.2h0Z"/>
  <path d="M369.3,107.1c0-19.6,15.6-26.5,36.2-30.7,11.5-2.3,23.9-3.9,23.9-12.9s-4-9.9-14.2-9.9-17.4,4.7-18.3,14.9h-23.9c.9-17.6,13.3-32.3,43.2-32.3s37,9.3,37,35.7v38.2c0,5.6.5,8.1,3.8,8.1s1.1,0,2.2-.2v12.7c-4.7.9-9.5,1.2-13.3,1.2-10.4,0-14.9-4.3-16.1-12.9h-.4c-6.5,8.8-16.9,14.5-30.7,14.5s-29.4-10.6-29.4-26.5h0ZM429.4,94.3v-9.7c-3.4,1.8-9,3.2-17.4,5.2-12.5,2.7-17.4,7.2-17.4,14.9s4.5,11.3,13.1,11.3c13.1,0,21.7-9.1,21.7-21.7h0Z"/>
  <path d="M468.6,2.7h24.6v128.2h-24.6V2.7Z"/>
  <path d="M552.4,56.7c-10.6,0-17.4,6.8-17.4,20.1v54.2h-24.6V39.3h24.6v12.6h.4c4.8-7.9,14.3-15.4,28.2-15.4s20.5,6.5,24,16.1h.5c6.3-9.2,15.4-16.1,29.8-16.1s29.2,11.5,29.2,31.9v62.6h-24.6v-55.1c0-13.3-2.9-19.2-14.2-19.2s-17.4,6.8-17.4,20.1v54.2h-24.6v-55.1c0-13.3-2.7-19.2-14-19.2h0Z"/>
  <path d="M688.5,121.1h-.4v9.9h-24.6V2.7h24.6v46.3h.4c4.1-5.6,13.5-12.6,27.3-12.6,23.8,0,40.3,18.5,40.3,48.6s-16.5,48.6-40.3,48.6-23.1-6.8-27.3-12.6h0ZM730.7,85c0-17.9-7.3-29.6-21-29.6s-21.2,10.8-21.2,29.6,7.9,29.8,21.2,29.8,21-11.8,21-29.8Z"/>
</svg>